# xmcd
#
# Track frame offsets: 
#        150
#        27223
#        54597
#        77872
#        92395
#        103563
#        129624
#        148217
#        171285
#        191872
#
# Disc length: 2813 seconds
#
# Revision: 2
# Processed by: cddbd v1.5.2PL0 Copyright (c) Steve Scherf et al.
# Submitted via: ExactAudioCopy v1.1
#
DISCID=880afb0a
DTITLE=The Love Unlimited Orchestra - Super Movie Themes
DYEAR=1979
DGENRE=Rhythmic Soul
TTITLE0=Theme From Superman
TTITLE1=Theme From King Kong
TTITLE2=Night Fever
TTITLE3=Grease
TTITLE4=Intermission
TTITLE5=Theme From Shaft
TTITLE6=Theme From A Summer Place
TTITLE7=The Way We Were
TTITLE8=As Time Goes By
TTITLE9=People Of Tomorrow Are The Children Of Today
EXTD=
EXTT0=
EXTT1=
EXTT2=
EXTT3=
EXTT4=
EXTT5=
EXTT6=
EXTT7=
EXTT8=
EXTT9=
PLAYORDER=
